<?xml version="1.0" encoding="utf-8"?>
<svg version="1.1" xmlns:xlink="http://www.w3.org/1999/xlink" width="13px" height="3px" xmlns="http://www.w3.org/2000/svg">
  <g transform="matrix(1 0 0 1 -147 -83 )">
    <path d="M 3.28693181818182 0.21875  C 3.4592803030303 0.364583333333332  3.54545454545454 0.541666666666666  3.54545454545454 0.75  L 3.54545454545454 2.25  C 3.54545454545454 2.45833333333333  3.4592803030303 2.63541666666667  3.28693181818182 2.78125  C 3.11458333333333 2.92708333333333  2.90530303030303 3  2.65909090909091 3  L 0.886363636363636 3  C 0.640151515151515 3  0.430871212121212 2.92708333333333  0.258522727272727 2.78125  C 0.0861742424242424 2.63541666666667  0 2.45833333333333  0 2.25  L 0 0.75  C 0 0.541666666666666  0.0861742424242424 0.364583333333332  0.258522727272727 0.21875  C 0.430871212121212 0.0729166666666661  0.640151515151515 0  0.886363636363636 0  L 2.65909090909091 0  C 2.90530303030303 0  3.11458333333333 0.0729166666666661  3.28693181818182 0.21875  Z M 8.01420454545454 0.21875  C 8.18655303030303 0.364583333333332  8.27272727272727 0.541666666666666  8.27272727272727 0.75  L 8.27272727272727 2.25  C 8.27272727272727 2.45833333333333  8.18655303030303 2.63541666666667  8.01420454545454 2.78125  C 7.84185606060606 2.92708333333333  7.63257575757576 3  7.38636363636364 3  L 5.61363636363636 3  C 5.36742424242424 3  5.15814393939394 2.92708333333333  4.98579545454546 2.78125  C 4.81344696969697 2.63541666666667  4.72727272727273 2.45833333333333  4.72727272727273 2.25  L 4.72727272727273 0.75  C 4.72727272727273 0.541666666666666  4.81344696969697 0.364583333333332  4.98579545454546 0.21875  C 5.15814393939394 0.0729166666666661  5.36742424242424 0  5.61363636363636 0  L 7.38636363636364 0  C 7.63257575757576 0  7.84185606060606 0.0729166666666661  8.01420454545454 0.21875  Z M 12.7414772727273 0.21875  C 12.9138257575758 0.364583333333332  13 0.541666666666666  13 0.75  L 13 2.25  C 13 2.45833333333333  12.9138257575758 2.63541666666667  12.7414772727273 2.78125  C 12.5691287878788 2.92708333333333  12.3598484848485 3  12.1136363636364 3  L 10.3409090909091 3  C 10.094696969697 3  9.88541666666667 2.92708333333333  9.71306818181818 2.78125  C 9.5407196969697 2.63541666666667  9.45454545454546 2.45833333333333  9.45454545454546 2.25  L 9.45454545454546 0.75  C 9.45454545454546 0.541666666666666  9.5407196969697 0.364583333333332  9.71306818181818 0.21875  C 9.88541666666667 0.0729166666666661  10.094696969697 0  10.3409090909091 0  L 12.1136363636364 0  C 12.3598484848485 0  12.5691287878788 0.0729166666666661  12.7414772727273 0.21875  Z " fill-rule="nonzero" fill="#000000" stroke="none" transform="matrix(1 0 0 1 147 83 )" />
  </g>
</svg>