<?xml version="1.0" encoding="utf-8"?>
<svg version="1.1" xmlns:xlink="http://www.w3.org/1999/xlink" width="40px" height="40px" xmlns="http://www.w3.org/2000/svg">
  <g transform="matrix(1 0 0 1 -269 -369 )">
    <path d="M 1.58854166666667 12.2395833333333  C 0.529513888888893 14.7048611111111  0 17.2916666666667  0 20  C 0 22.7083333333333  0.529513888888893 25.2951388888889  1.58854166666667 27.7604166666667  C 2.64756944444444 30.2256944444444  4.07118055555555 32.3524305555556  5.859375 34.140625  C 7.64756944444444 35.9288194444444  9.77430555555555 37.3524305555556  12.2395833333333 38.4114583333333  C 14.7048611111111 39.4704861111111  17.2916666666667 40  20 40  C 22.9861111111111 40  25.8246527777778 39.3706597222222  28.515625 38.1119791666667  C 31.2065972222222 36.8532986111111  33.4982638888889 35.078125  35.390625 32.7864583333333  C 35.5121527777778 32.6128472222222  35.5685763888889 32.4175347222222  35.5598958333333 32.2005208333333  C 35.5512152777778 31.9835069444444  35.4774305555556 31.8055555555556  35.3385416666667 31.6666666666667  L 31.7708333333333 28.0729166666667  C 31.5972222222222 27.9166666666667  31.3802083333333 27.8385416666667  31.1197916666667 27.8385416666667  C 30.8420138888889 27.8732638888889  30.6423611111111 27.9774305555556  30.5208333333333 28.1510416666667  C 29.2534722222222 29.8003472222222  27.6996527777778 31.0763888888889  25.859375 31.9791666666667  C 24.0190972222222 32.8819444444444  22.0659722222222 33.3333333333333  20 33.3333333333333  C 18.1944444444444 33.3333333333333  16.4713541666667 32.9817708333333  14.8307291666667 32.2786458333333  C 13.1901041666667 31.5755208333333  11.7708333333333 30.625  10.5729166666667 29.4270833333333  C 9.375 28.2291666666667  8.42447916666666 26.8098958333333  7.72135416666667 25.1692708333333  C 7.01822916666667 23.5286458333333  6.66666666666667 21.8055555555556  6.66666666666667 20  C 6.66666666666667 18.1944444444444  7.01822916666667 16.4713541666667  7.72135416666667 14.8307291666667  C 8.42447916666666 13.1901041666667  9.375 11.7708333333333  10.5729166666667 10.5729166666667  C 11.7708333333333 9.375  13.1901041666667 8.42447916666666  14.8307291666667 7.72135416666667  C 16.4713541666667 7.01822916666667  18.1944444444444 6.66666666666667  20 6.66666666666667  C 21.7013888888889 6.66666666666667  23.3333333333333 6.97482638888889  24.8958333333333 7.59114583333333  C 26.4583333333333 8.20746527777777  27.8472222222222 9.08854166666666  29.0625 10.234375  L 25.4947916666667 13.828125  C 24.9565972222222 14.3489583333333  24.8350694444444 14.9479166666667  25.1302083333333 15.625  C 25.4253472222222 16.3194444444444  25.9375 16.6666666666667  26.6666666666667 17  L 38.3333333333333 17  C 38.7847222222222 16.6666666666667  39.1753472222222 16.5017361111111  39.5052083333333 16.171875  C 39.8350694444444 15.8420138888889  40 15.4513888888889  40 15  L 40 3.33333333333333  C 40 2.60416666666667  39.6527777777778 2.09201388888889  38.9583333333333 1.796875  C 38.28125 1.50173611111111  37.6822916666667 1.62326388888889  37.1614583333333 2.16145833333333  L 33.7760416666667 5.52083333333333  C 31.9184027777778 3.76736111111111  29.7960069444444 2.40885416666667  27.4088541666667 1.4453125  C 25.0217013888889 0.481770833333335  22.5520833333333 0  20 0  C 17.2916666666667 0  14.7048611111111 0.529513888888888  12.2395833333333 1.58854166666667  C 9.77430555555555 2.64756944444444  7.64756944444444 4.07118055555555  5.859375 5.859375  C 4.07118055555555 7.64756944444444  2.64756944444444 9.77430555555555  1.58854166666667 12.2395833333333  Z " fill-rule="nonzero" fill="#333333" stroke="none" transform="matrix(1 0 0 1 269 369 )" />
  </g>
</svg>