<?xml version="1.0" encoding="utf-8"?>
<svg version="1.1" xmlns:xlink="http://www.w3.org/1999/xlink" width="40px" height="33px" xmlns="http://www.w3.org/2000/svg">
  <g transform="matrix(1 0 0 1 -269 -477 )">
    <path d="M 33.3854479855682 18.1171875  C 33.7061535377831 18.2421875  33.8665063138906 18.46875  33.8665063138906 18.796875  L 33.8665063138906 26.25  C 33.8665063138906 28.109375  33.1890158348366 29.69921875  31.8340348767288 31.01953125  C 30.479053918621 32.33984375  28.8474644217278 33  26.9392663860493 33  L 6.92723992784125 33  C 5.01904189216276 33  3.38745239526959 32.33984375  2.03247143716176 31.01953125  C 0.677490479053918 29.69921875  0 28.109375  0 26.25  L 0 6.75  C 0 4.890625  0.677490479053918 3.30078125  2.03247143716176 1.98046875  C 3.38745239526959 0.660156249999997  5.01904189216276 0  6.92723992784125 0  L 26.9392663860493 0  C 27.9494888755262 0  28.8875526157547 0.195312499999998  29.7534576067348 0.585937499999998  C 29.993986770896 0.695312499999998  30.1383042693927 0.874999999999999  30.1864101022249 1.125  C 30.2345159350571 1.390625  30.1623571858088 1.6171875  29.9699338544799 1.8046875  L 28.7913409500902 2.953125  C 28.6309881739828 3.109375  28.4465824814592 3.1875  28.2381238725195 3.1875  C 28.1900180396873 3.1875  28.117859290439 3.171875  28.0216476247745 3.140625  C 27.6528362397274 3.046875  27.2920424934857 3  26.9392663860493 3  L 6.92723992784125 3  C 5.86891160553217 3  4.96291842052516 3.3671875  4.2092603728202 4.1015625  C 3.45560232511525 4.8359375  3.07877330126278 5.71875  3 6.75  L 3 26.25  C 3.07877330126278 27.28125  3.45560232511525 28.1640625  4.2092603728202 28.8984375  C 4.96291842052516 29.6328125  5.86891160553217 30  6.92723992784125 30  L 26.9392663860493 30  C 27.9975947083584 30  28.9035878933654 29.6328125  29.6572459410704 28.8984375  C 30.4109039887753 28.1640625  30.7877330126278 27.28125  30.7877330126278 26.25  L 30.7877330126278 20.296875  C 30.7877330126278 20.09375  30.8598917618761 19.921875  31.0042092603728 19.78125  L 32.5435959110042 18.28125  C 32.7039486871116 18.125  32.8883543796352 18.046875  33.0968129885749 18.046875  C 33.1930246542393 18.046875  33.2892363199038 18.0703125  33.3854479855682 18.1171875  Z M 40 6  C 40 6.515625  39.8075766686711 6.9609375  39.4227300060132 7.3359375  L 19.8436560432953 26.4140625  C 19.4588093806374 26.7890625  19.0018039687312 26.9765625  18.4726398075767 26.9765625  C 17.9434756464221 26.9765625  17.4864702345159 26.7890625  17.1016235718581 26.4140625  L 6.75886951292844 16.3359375  C 6.3740228502706 15.9609375  6.18159951894167 15.515625  6.18159951894167 15  C 6.18159951894167 14.484375  6.3740228502706 14.0390625  6.75886951292844 13.6640625  L 9.40469031870114 11.0859375  C 9.78953698135899 10.7109375  10.2465423932652 10.5234375  10.7757065544197 10.5234375  C 11.3048707155743 10.5234375  11.7618761274805 10.7109375  12.1467227901383 11.0859375  L 18.4726398075767 17.25  L 34.0348767288034 2.0859375  C 34.4197233914612 1.7109375  34.8767288033674 1.5234375  35.405892964522 1.5234375  C 35.9350571256765 1.5234375  36.3920625375827 1.7109375  36.7769092002405 2.0859375  L 39.4227300060132 4.6640625  C 39.8075766686711 5.0390625  40 5.484375  40 6  Z " fill-rule="nonzero" fill="#333333" stroke="none" transform="matrix(1 0 0 1 269 477 )" />
  </g>
</svg>