<?xml version="1.0" encoding="utf-8"?>
<svg version="1.1" xmlns:xlink="http://www.w3.org/1999/xlink" width="25px" height="20px" xmlns="http://www.w3.org/2000/svg">
  <g transform="matrix(1 0 0 1 -684 -75 )">
    <path d="M 24.4480298913043 8.01668806161746  C 24.8160099637681 8.33761232349166  25 8.72486093281985  25 9.17843388960205  L 25 10.8215661103979  C 25 11.2751390671801  24.8160099637681 11.6623876765083  24.4480298913043 11.9833119383825  C 24.0800498188406 12.3042362002567  23.6016757246377 12.4646983311938  23.0129076086957 12.4646983311938  L 11.0563858695652 12.4646983311938  L 16.0326086956522 16.2387676508344  C 16.4628623188406 16.5468549422336  16.6779891304348 16.9319640564827  16.6779891304348 17.3940949935815  C 16.6779891304348 17.8562259306804  16.4628623188406 18.2413350449294  16.0326086956522 18.5494223363286  L 14.7588315217391 19.5250320924262  C 14.3399003623188 19.8416773641421  13.8303894927536 20  13.2302989130435 20  C 12.6415307971014 20  12.1263586956522 19.8416773641421  11.6847826086957 19.5250320924262  L 0.628396739130435 11.1553273427471  C 0.209465579710145 10.8386820710312  0 10.4535729567822  0 10  C 0 9.55498502353445  0.209465579710145 9.16559691912709  0.628396739130435 8.83183568677792  L 11.6847826086957 0.487804878048781  C 12.1150362318841 0.162601626016259  12.6302083333333 0  13.2302989130435 0  C 13.8190670289855 0  14.3285778985507 0.162601626016259  14.7588315217391 0.487804878048781  L 16.0326086956522 1.43774069319641  C 16.4628623188406 1.76294394522893  16.6779891304348 2.15233204963628  16.6779891304348 2.60590500641849  C 16.6779891304348 3.05947796320068  16.4628623188406 3.44886606760804  16.0326086956522 3.77406931964057  L 11.0563858695652 7.53530166880616  L 23.0129076086957 7.53530166880616  C 23.6016757246377 7.53530166880616  24.0800498188406 7.69576379974326  24.4480298913043 8.01668806161746  Z " fill-rule="nonzero" fill="#7f7f7f" stroke="none" transform="matrix(1 0 0 1 684 75 )" />
  </g>
</svg>