<?xml version="1.0" encoding="utf-8"?>
<svg version="1.1" xmlns:xlink="http://www.w3.org/1999/xlink" width="64px" height="27px" xmlns="http://www.w3.org/2000/svg">
  <g transform="matrix(1 0 0 1 -208 -85 )">
    <path d="M 62.1071428571429 12.200625  C 63.3690476190476 13.708125  64 15.58125  64 17.82  C 64 19.6875  62.4880952380952 22.224375  59.4642857142857 25.430625  C 59.3928571428572 25.509375  59.2678571428572 25.644375  59.0892857142857 25.835625  C 58.9107142857143 26.026875  58.75 26.195625  58.6071428571429 26.341875  C 58.4642857142857 26.488125  58.3095238095238 26.611875  58.1428571428571 26.713125  C 57.8571428571429 26.904375  57.5238095238095 27  57.1428571428571 27  C 56.7857142857143 27  56.5059523809524 26.94375  56.3035714285714 26.83125  C 56.1011904761905 26.71875  56 26.578125  56 26.409375  C 56 26.308125  56.0297619047619 26.1590625  56.0892857142857 25.9621875  C 56.1488095238095 25.7653125  56.1785714285714 25.633125  56.1785714285714 25.565625  C 56.2976190476191 24.800625  56.3571428571429 24.10875  56.3571428571429 23.49  C 56.3571428571429 22.35375  56.1488095238095 21.335625  55.7321428571429 20.435625  C 55.3154761904762 19.535625  54.7380952380952 18.7565625  54 18.0984375  C 53.2619047619048 17.4403125  52.3095238095238 16.8721875  51.1428571428571 16.3940625  C 49.9761904761905 15.9159375  48.7202380952381 15.525  47.375 15.22125  C 46.0297619047619 14.9175  44.4464285714286 14.6784375  42.625 14.5040625  C 40.8035714285714 14.3296875  38.9702380952381 14.20875  37.125 14.14125  C 35.2797619047619 14.07375  33.1904761904762 14.04  30.8571428571429 14.04  L 22.8571428571429 14.04  L 22.8571428571429 18.36  C 22.8571428571429 18.6525  22.6309523809524 18.905625  22.1785714285714 19.119375  C 21.7261904761905 19.333125  21.1904761904762 19.44  20.5714285714286 19.44  C 19.952380952381 19.44  19.4166666666667 19.333125  18.9642857142857 19.119375  L 0.678571428571429 10.479375  C 0.226190476190476 10.265625  0 10.0125  0 9.72  C 0 9.4275  0.226190476190476 9.174375  0.678571428571429 8.960625  L 18.9642857142857 0.320624999999999  C 19.4166666666667 0.106874999999999  19.952380952381 0  20.5714285714286 0  C 21.1904761904762 0  21.7261904761905 0.106874999999999  22.1785714285714 0.320624999999999  C 22.6309523809524 0.534374999999997  22.8571428571429 0.787499999999997  22.8571428571429 1.08  L 22.8571428571429 5.4  L 30.8571428571429 5.4  C 47.8333333333333 5.4  58.25 7.666875  62.1071428571429 12.200625  Z " fill-rule="nonzero" fill="#333333" stroke="none" transform="matrix(1 0 0 1 208 85 )" />
  </g>
</svg>